<?xml version="1.0" standalone="no"?><!DOCTYPE svg PUBLIC "-//W3C//DTD SVG 1.1//EN" "http://www.w3.org/Graphics/SVG/1.1/DTD/svg11.dtd"><svg t="1635327690876" class="icon" viewBox="0 0 1024 1024" version="1.1" xmlns="http://www.w3.org/2000/svg" p-id="887" xmlns:xlink="http://www.w3.org/1999/xlink" width="200" height="200"><defs><style type="text/css"></style></defs><path d="M138.715429 785.206857l297.435428 168.868572c50.998857 29.129143 99.84 29.568 151.698286 0l297.435428-168.868572c39.862857-22.710857 61.714286-45.842286 61.714286-107.995428V343.789714c0-60.434286-22.290286-82.285714-58.697143-103.296l-298.294857-169.691428c-53.138286-30.445714-104.155429-30.006857-156.013714 0l-298.276572 169.691428C99.291429 261.504 76.982857 283.355429 76.982857 343.789714v333.421715c0 62.153143 21.851429 85.284571 61.714286 107.995428z m40.283428-59.977143c-24.429714-13.714286-32.566857-27.008-32.566857-50.157714V346.788571c0-21.430857 8.576-33.865143 29.988571-46.281142l288-165.010286c32.585143-18.432 61.714286-19.291429 95.158858 0l288 165.010286c21.430857 12.434286 29.988571 24.850286 29.988571 46.262857v328.301714c0 23.149714-8.137143 36.425143-32.566857 50.139429l-285.44 162.432c-34.267429 19.291429-62.134857 18.852571-95.140572 0z" p-id="888"></path></svg>